<?xml version="1.0" encoding="utf-8"?>
<!-- Generator: Adobe Illustrator 23.0.1, SVG Export Plug-In . SVG Version: 6.00 Build 0)  -->
<svg version="1.1" id="Ebene_1" xmlns="http://www.w3.org/2000/svg" xmlns:xlink="http://www.w3.org/1999/xlink" x="0px" y="0px"
	 viewBox="0 0 218.1 453.13" style="enable-background:new 0 0 218.1 453.13;" xml:space="preserve">
<style type="text/css">
	.st0{fill:none;}
	.st1{fill:#F7F7F7;}
	.st2{fill:#0F0F0F;}
</style>
<g>
	<path d="M218.04,226.35c0,64.16-0.07,128.33,0.06,192.49c0.02,11.15-2.94,20.66-11.96,27.76c-5.29,4.17-11.29,6.46-18,6.46
		c-52.67,0.05-105.33,0.12-158-0.03c-15.82-0.04-28.55-12.3-29.83-28.03c-0.19-2.32-0.23-4.66-0.23-6.99
		C0.07,290.36,0.11,162.7,0,35.03C-0.01,23.54,2.74,13.66,12.17,6.36c5.18-4.01,11.03-6.29,17.55-6.29
		C82.55,0.01,135.38-0.06,188.21,0.1c15.54,0.05,28.26,12.32,29.56,27.77c0.24,2.82,0.25,5.66,0.25,8.49
		C218.04,99.69,218.04,163.02,218.04,226.35z M209.78,226.83c0-63.83,0-127.66-0.01-191.49c0-2.33,0.01-4.67-0.13-7
		C208.95,17.32,200.97,8.83,190,7.98c-6.3-0.49-12.65-0.24-18.98-0.33c-3.43-0.05-5.01,1.54-5.46,5.04
		c-1.03,8.01-5.63,12.17-13.75,12.2c-28.5,0.1-57,0.1-85.49,0c-8.13-0.03-12.77-4.17-13.75-12.19c-0.48-3.87-2.44-5.12-5.96-5.07
		c-5.33,0.06-10.67-0.13-16,0.06C16.46,8.2,7.68,17.09,7.68,31.29c-0.05,130.16-0.05,260.31,0,390.47
		c0.01,14.43,8.87,23.62,23.33,23.67c51.83,0.17,103.66,0.07,155.49,0.07c6.22,0,11.82-1.68,16.43-6.08
		c5.49-5.23,6.9-11.79,6.9-19.09C209.75,355.82,209.78,291.32,209.78,226.83z M109.05,15.03c3.66,0,7.32,0.03,10.98-0.02
		c1.15-0.01,2.55-0.04,2.36-1.74c-0.15-1.31-1.4-1.24-2.36-1.24c-7.32-0.03-14.64-0.03-21.96,0c-0.96,0-2.21-0.06-2.36,1.24
		c-0.19,1.7,1.21,1.73,2.36,1.74C101.73,15.05,105.39,15.03,109.05,15.03z M133.23,10c-2.07,0.12-3.44,1.3-3.46,3.37
		c-0.03,2.29,1.36,3.71,3.76,3.62c2.19-0.08,3.26-1.5,3.22-3.59C136.71,11.25,135.48,10.09,133.23,10z"/>
	<path class="st0" d="M209.78,226.83c0,64.5-0.03,128.99,0.05,193.49c0.01,7.31-1.41,13.86-6.9,19.09
		c-4.62,4.4-10.21,6.08-16.43,6.08c-51.83,0.01-103.66,0.11-155.49-0.07c-14.47-0.05-23.33-9.24-23.33-23.67
		c-0.05-130.16-0.05-260.31,0-390.47C7.68,17.09,16.46,8.2,30.6,7.68c5.33-0.19,10.67,0,16-0.06c3.52-0.04,5.48,1.2,5.96,5.07
		c0.99,8.02,5.62,12.16,13.75,12.19c28.5,0.1,57,0.1,85.49,0c8.12-0.03,12.73-4.18,13.75-12.2c0.45-3.5,2.03-5.09,5.46-5.04
		c6.33,0.09,12.68-0.16,18.98,0.33c10.97,0.86,18.95,9.35,19.64,20.37c0.15,2.33,0.13,4.66,0.13,7
		C209.78,99.17,209.78,163,209.78,226.83z M108.8,441.04c10.49,0,20.99,0.03,31.48-0.03c1.69-0.01,4.36,0.7,4.5-1.78
		c0.14-2.64-2.58-2.03-4.25-2.03c-20.99-0.05-41.98-0.05-62.97,0c-1.67,0-4.39-0.61-4.25,2.03c0.13,2.48,2.81,1.76,4.5,1.77
		C88.15,441.07,98.48,441.04,108.8,441.04z"/>
	<path class="st1" d="M109.05,15.03c-3.66,0-7.32,0.03-10.98-0.02c-1.15-0.01-2.55-0.04-2.36-1.74c0.15-1.31,1.4-1.24,2.36-1.24
		c7.32-0.03,14.64-0.03,21.96,0c0.96,0,2.21-0.06,2.36,1.24c0.19,1.7-1.21,1.73-2.36,1.74C116.37,15.05,112.71,15.03,109.05,15.03z"
		/>
	<path class="st1" d="M133.23,10c2.24,0.1,3.48,1.26,3.52,3.39c0.04,2.09-1.03,3.51-3.22,3.59c-2.39,0.09-3.78-1.33-3.76-3.62
		C129.8,11.3,131.17,10.12,133.23,10z"/>
	<path class="st2" d="M108.8,441.04c-10.33,0-20.66,0.03-30.98-0.03c-1.69-0.01-4.37,0.7-4.5-1.77c-0.14-2.64,2.58-2.03,4.25-2.03
		c20.99-0.05,41.98-0.05,62.97,0c1.67,0,4.39-0.61,4.25,2.03c-0.13,2.48-2.81,1.77-4.5,1.78
		C129.79,441.07,119.3,441.04,108.8,441.04z"/>
</g>
</svg>
