<svg aria-hidden="true" focusable="false" data-prefix="fad" data-icon="rectangle-portrait" class="svg-inline--fa fa-rectangle-portrait fa-w-12" role="img" xmlns="http://www.w3.org/2000/svg" viewBox="0 0 384 512"><g class="fa-group"><path class="fa-secondary" fill="currentColor" d="M336 0H48A48 48 0 0 0 0 48v416a48 48 0 0 0 48 48h288a48 48 0 0 0 48-48V48a48 48 0 0 0-48-48zm-16 432a16 16 0 0 1-16 16H80a16 16 0 0 1-16-16V80a16 16 0 0 1 16-16h224a16 16 0 0 1 16 16z" opacity="0.4"></path><path class="fa-primary" fill="currentColor" d="M64 432V80a16 16 0 0 1 16-16h224a16 16 0 0 1 16 16v352a16 16 0 0 1-16 16H80a16 16 0 0 1-16-16z"></path></g></svg>